<svg xmlns="http://www.w3.org/2000/svg" width="256" height="256" viewBox="0 0 100 100"><rect width="100" height="100" rx="20" fill="#2f9f46"></rect><path d="M47.14 60.78L37.35 60.78L37.35 83.55Q36.47 83.88 35.04 84.16Q33.61 84.43 31.85 84.43L31.85 84.43Q28.44 84.43 26.95 83.17Q25.47 81.90 25.47 78.93L25.47 78.93L25.47 22.17Q25.47 20.30 26.52 19.26Q27.56 18.21 29.43 17.66L29.43 17.66Q32.84 16.45 37.57 16.01Q42.30 15.57 46.48 15.57L46.48 15.57Q60.78 15.57 67.66 21.62Q74.53 27.67 74.53 38.01L74.53 38.01Q74.53 48.35 67.66 54.57Q60.78 60.78 47.14 60.78L47.14 60.78ZM37.24 51.21L46.37 51.21Q53.96 51.21 58.30 47.91Q62.65 44.61 62.65 38.01L62.65 38.01Q62.65 31.41 58.53 28.33Q54.40 25.25 46.70 25.25L46.70 25.25Q44.17 25.25 41.70 25.47Q39.22 25.69 37.24 26.02L37.24 26.02L37.24 51.21Z" fill="#fff"></path></svg>